<?xml version="1.0" encoding="utf-8"?>
<!-- Generator: Adobe Illustrator 20.1.0, SVG Export Plug-In . SVG Version: 6.00 Build 0)  -->
<svg version="1.1" id="Layer_1" xmlns="http://www.w3.org/2000/svg" xmlns:xlink="http://www.w3.org/1999/xlink" x="0px" y="0px"
	 viewBox="0 0 300 300" style="enable-background:new 0 0 300 300;" xml:space="preserve">
<style type="text/css">
	.st0{fill:none;stroke:#FFFFFF;stroke-width:16;stroke-miterlimit:10;}
</style>
<path class="st0" d="M261.6,97.8c3.6,7.6,6.4,15.7,8.4,24"/>
<path class="st0" d="M237.6,234.9c-21.9,21.9-52.2,35.5-85.6,35.5c-66.9,0-121.1-54.2-121.1-121.1S85.1,28.3,152,28.3
	c48.4,0,90.2,28.4,109.6,69.5"/>
<path class="st0" d="M267.9,116.4"/>
<path class="st0" d="M60.5,230c-3.1-10.8-4.8-22.2-4.8-34C55.7,129.2,109.9,75,176.7,75c33.5,0,63.9,13.6,85.8,35.6"/>
<path class="st0" d="M274.8,116.3"/>
<path class="st0" d="M114.1,260.8c-2.3-9.3-3.5-18.9-3.5-28.9c0-66.9,54.2-121.1,121.1-121.1c11.8,0,23.1,1.7,33.9,4.8"/>
<path class="st0" d="M147.7,136"/>
<path class="st0" d="M229.8,237.6c-41.4-13.8-72.9-49.4-80.8-93.2"/>
</svg>
